<svg xmlns="http://www.w3.org/2000/svg" width="1600" height="900" viewBox="0 0 1600 900">
  <defs>
    <radialGradient id="base" cx="50%" cy="0%" r="90%">
      <stop offset="0%" stop-color="#2a2620"/>
      <stop offset="55%" stop-color="#161513"/>
      <stop offset="100%" stop-color="#0e0e0f"/>
    </radialGradient>
    <radialGradient id="glow" cx="72%" cy="34%" r="42%">
      <stop offset="0%" stop-color="#c79a4a" stop-opacity="0.34"/>
      <stop offset="45%" stop-color="#c79a4a" stop-opacity="0.10"/>
      <stop offset="100%" stop-color="#c79a4a" stop-opacity="0"/>
    </radialGradient>
    <linearGradient id="fade" x1="0" y1="0" x2="0" y2="1">
      <stop offset="55%" stop-color="#0e0e0f" stop-opacity="0"/>
      <stop offset="100%" stop-color="#0e0e0f" stop-opacity="0.9"/>
    </linearGradient>
  </defs>
  <rect width="1600" height="900" fill="url(#base)"/>
  <!-- faint engineering grid -->
  <g stroke="#c79a4a" stroke-opacity="0.06" stroke-width="1">
    <path d="M0 150H1600M0 300H1600M0 450H1600M0 600H1600M0 750H1600"/>
    <path d="M200 0V900M400 0V900M600 0V900M800 0V900M1000 0V900M1200 0V900M1400 0V900"/>
  </g>
  <!-- a couple of subtle circuit traces -->
  <g stroke="#c79a4a" stroke-opacity="0.18" stroke-width="2" fill="none">
    <path d="M1000 300H1150V420H1320"/>
    <path d="M1080 520H1240V360"/>
    <circle cx="1320" cy="420" r="5" fill="#c79a4a" fill-opacity="0.4" stroke="none"/>
    <circle cx="1240" cy="360" r="5" fill="#c79a4a" fill-opacity="0.4" stroke="none"/>
  </g>
  <rect width="1600" height="900" fill="url(#glow)"/>
  <rect width="1600" height="900" fill="url(#fade)"/>
</svg>
